<svg width="24" height="25" viewBox="0 0 24 25" fill="none" xmlns="http://www.w3.org/2000/svg">
<style>
    /* Main logo path - changes between white (dark mode) and black (light mode) */
    @media (prefers-color-scheme: dark) {
      .main-logo { fill: white !important; }
      .gradient-1 stop:first-child { stop-color: #444444; }
      .gradient-1 stop:last-child { stop-color: #AAAAAA; }
      .gradient-2 stop:first-child { stop-color: #B1B1B1; }
      .gradient-2 stop:last-child { stop-color: white; }
    }
    @media (prefers-color-scheme: light) {
      .main-logo { fill: #1a1a1a !important; }
      .gradient-1 stop:first-child { stop-color: #BBBBBB; }
      .gradient-1 stop:last-child { stop-color: #555555; }
      .gradient-2 stop:first-child { stop-color: #4E4E4E; }
      .gradient-2 stop:last-child { stop-color: #1a1a1a; }
    }
  </style>
<g filter="url(#filter0_d_74733_72229)">
<path class="main-logo" d="M11.1807 0H23.6231V5.72528H12.4881C9.15183 5.72528 6.44725 8.47527 6.44725 11.8115C6.44725 15.098 9.11146 17.807 12.3979 17.807L17.6273 13.8398L12.2627 13.93V9.46699H23.6231V23.7576L17.6273 20.9626L14.6069 23.1265L12.0481 23.1589C5.61775 23.2403 0.361328 18.05 0.361328 11.6191V10.8194C0.361328 4.84402 5.20534 0 11.1807 0Z"/>
</g>
<path opacity="0.2" d="M0.644531 8.48535L14.6247 22.9491C14.6247 22.9491 11.2037 23.6001 8.40244 22.6663C5.45263 21.683 2.56121 19.0697 1.61344 17.0097C-0.486785 12.445 0.644531 8.48535 0.644531 8.48535Z" fill="url(#paint0_linear_74733_72229)"/>
<path d="M23.5767 16.5896L14.6056 23.0812C14.6056 23.0812 12.2485 23.1998 10.7459 23.0812C8.56258 22.9089 7.14844 22.0604 7.14844 22.0604L12.4868 17.7617L23.5767 9.4668V16.5896Z" fill="url(#paint1_linear_74733_72229)"/>
<defs>
<filter id="filter0_d_74733_72229" x="0.000680745" y="0" width="23.983" height="24.4791" filterUnits="userSpaceOnUse" color-interpolation-filters="sRGB">
<feFlood flood-opacity="0" result="BackgroundImageFix"/>
<feColorMatrix in="SourceAlpha" type="matrix" values="0 0 0 0 0 0 0 0 0 0 0 0 0 0 0 0 0 0 127 0" result="hardAlpha"/>
<feOffset dy="0.360647"/>
<feGaussianBlur stdDeviation="0.180324"/>
<feComposite in2="hardAlpha" operator="out"/>
<feColorMatrix type="matrix" values="0 0 0 0 0 0 0 0 0 0 0 0 0 0 0 0 0 0 0.25 0"/>
<feBlend mode="normal" in2="BackgroundImageFix" result="effect1_dropShadow_74733_72229"/>
<feBlend mode="normal" in="SourceGraphic" in2="effect1_dropShadow_74733_72229" result="shape"/>
</filter>
<linearGradient class="gradient-1" id="paint0_linear_74733_72229" x1="7.43243" y1="21.4955" x2="4.32131" y2="7.91969" gradientUnits="userSpaceOnUse">
<stop stop-color="#444444"/>
<stop offset="1" stop-color="#AAAAAA"/>
</linearGradient>
<linearGradient class="gradient-2" id="paint1_linear_74733_72229" x1="25.2495" y1="10.1816" x2="10.4249" y2="18.4738" gradientUnits="userSpaceOnUse">
<stop stop-color="#B1B1B1"/>
<stop offset="1" stop-color="white"/>
</linearGradient>
</defs>
</svg>
